# xmcd CD database file
#
# Track frame offsets:
#	150
#	20245
#	42167
#	60997
#	81567
#	101122
#	122545
#	144722
#	167227
#	187710
#	207287
#	214610
#
# Disc length: 3173 seconds
#
# Revision: 0
# Processed by: cddbd v1.5.1PL0 Copyright (c) Steve Scherf et al.
# Submitted via: CDex 1.51
#
DISCID=a90c630c
DTITLE=FREDDIE RAVEL - FREDDIE RAVEL
DYEAR=2001
DGENRE=Latin
TTITLE0=Echo de Amor
TTITLE1=Samba Mundial
TTITLE2=Sunny Side Up
TTITLE3=Bolerino Bella
TTITLE4=Love Is in theAir...When you're Aware
TTITLE5=Conversations
TTITLE6=Piano Sensual
TTITLE7=Dame Tu Calor
TTITLE8=Summerplay
TTITLE9=Dame la razon ("Love Is in the Air"Spanish mix)
TTITLE10=Echo de Amor (duet)
TTITLE11=Dame Tu Calor (Instrumental)
EXTD=YEAR: 2001
EXTT0=
EXTT1=
EXTT2=
EXTT3=
EXTT4=
EXTT5=
EXTT6=
EXTT7=
EXTT8=
EXTT9=
EXTT10=
EXTT11=
PLAYORDER=
